<?xml version="1.0" encoding="UTF-8"?>
<svg width="25px" height="25px" viewBox="0 0 25 25" version="1.1" xmlns="http://www.w3.org/2000/svg" xmlns:xlink="http://www.w3.org/1999/xlink">
    <!-- Generator: Sketch 47.1 (45422) - http://www.bohemiancoding.com/sketch -->
    <title>返回带底</title>
    <desc>Created with Sketch.</desc>
    <defs></defs>
    <g id="-" stroke="none" stroke-width="1" fill="none" fill-rule="evenodd">
        <g id="微信登录后绑定手机号" transform="translate(-20.000000, -35.000000)">
            <g id="返回带底" transform="translate(20.000000, 35.000000)">
                <circle id="Oval-2" fill="#F0F0F0" cx="12.5" cy="12.5" r="12.5"></circle>
                <path d="M11.4852814,16.4852814 L20.4852814,16.4852814 C21.0375661,16.4852814 21.4852814,16.9329966 21.4852814,17.4852814 L21.4852814,17.4852814 C21.4852814,18.0375661 21.0375661,18.4852814 20.4852814,18.4852814 L10.4852814,18.4852814 C10.209139,18.4852814 9.959139,18.3733526 9.77817459,18.1923882 C9.59721019,18.0114237 9.48528137,17.7614237 9.48528137,17.4852814 L9.48528137,7.48528137 C9.48528137,6.93299662 9.93299662,6.48528137 10.4852814,6.48528137 L10.4852814,6.48528137 L10.4852814,6.48528137 C11.0375661,6.48528137 11.4852814,6.93299662 11.4852814,7.48528137 L11.4852814,7.48528137 L11.4852814,16.4852814 Z" id="返回-copy" fill="#333333" transform="translate(15.485281, 12.485281) rotate(-315.000000) translate(-15.485281, -12.485281) "></path>
            </g>
        </g>
    </g>
</svg>